<mxfile host="app.diagrams.net" agent="Mozilla/5.0 (Windows NT 10.0; Win64; x64) AppleWebKit/537.36 (KHTML, like Gecko) Chrome/137.0.0.0 Safari/537.36 OPR/121.0.0.0" version="28.2.5">
  <diagram name="PÃ¡gina-1" id="p1QER_G5QZlAkRWqN-8y">
    <mxGraphModel dx="1033" dy="477" grid="1" gridSize="10" guides="1" tooltips="1" connect="1" arrows="1" fold="1" page="1" pageScale="1" pageWidth="980" pageHeight="1390" math="0" shadow="0">
      <root>
        <mxCell id="0" />
        <mxCell id="1" parent="0" />
        <mxCell id="pXtrDEg1o2ByqRby1C81-1" style="edgeStyle=orthogonalEdgeStyle;rounded=0;orthogonalLoop=1;jettySize=auto;html=1;entryX=0.5;entryY=0;entryDx=0;entryDy=0;" edge="1" parent="1" source="pXtrDEg1o2ByqRby1C81-2">
          <mxGeometry relative="1" as="geometry">
            <mxPoint x="156.5" y="310" as="targetPoint" />
          </mxGeometry>
        </mxCell>
        <mxCell id="pXtrDEg1o2ByqRby1C81-2" value="" style="ellipse;html=1;shape=endState;fillColor=#000000;strokeColor=#ff0000;" vertex="1" parent="1">
          <mxGeometry x="141.5" y="220" width="30" height="30" as="geometry" />
        </mxCell>
        <mxCell id="pXtrDEg1o2ByqRby1C81-3" value="Estado Inicial" style="text;html=1;align=center;verticalAlign=middle;resizable=0;points=[];autosize=1;strokeColor=none;fillColor=none;" vertex="1" parent="1">
          <mxGeometry x="112.5" y="190" width="90" height="30" as="geometry" />
        </mxCell>
        <mxCell id="pXtrDEg1o2ByqRby1C81-4" value="Diagrama de Estados - Objeto Voto&amp;nbsp;" style="text;html=1;align=center;verticalAlign=middle;resizable=0;points=[];autosize=1;strokeColor=none;fillColor=none;fontStyle=3;fontSize=30;" vertex="1" parent="1">
          <mxGeometry x="207.5" y="120" width="500" height="50" as="geometry" />
        </mxCell>
        <mxCell id="pXtrDEg1o2ByqRby1C81-5" value="Voto vazio" style="html=1;whiteSpace=wrap;" vertex="1" parent="1">
          <mxGeometry x="190" y="220" width="100" height="40" as="geometry" />
        </mxCell>
        <mxCell id="pXtrDEg1o2ByqRby1C81-8" value="Condition" style="rhombus;whiteSpace=wrap;html=1;fontColor=#000000;fillColor=#ffffc0;strokeColor=#ff0000;" vertex="1" parent="1">
          <mxGeometry x="218.25" y="315" width="80" height="40" as="geometry" />
        </mxCell>
        <mxCell id="pXtrDEg1o2ByqRby1C81-10" value="Erro no sistema" style="edgeStyle=orthogonalEdgeStyle;html=1;align=left;verticalAlign=top;endArrow=open;endSize=8;strokeColor=#ff0000;rounded=0;" edge="1" parent="1" source="pXtrDEg1o2ByqRby1C81-8" target="pXtrDEg1o2ByqRby1C81-12">
          <mxGeometry x="-0.1429" y="-58" relative="1" as="geometry">
            <mxPoint x="162.5" y="460" as="targetPoint" />
            <mxPoint as="offset" />
          </mxGeometry>
        </mxCell>
        <mxCell id="pXtrDEg1o2ByqRby1C81-12" value="Voto vazio" style="html=1;whiteSpace=wrap;" vertex="1" parent="1">
          <mxGeometry x="208.25" y="460" width="100" height="40" as="geometry" />
        </mxCell>
        <mxCell id="pXtrDEg1o2ByqRby1C81-35" style="edgeStyle=orthogonalEdgeStyle;rounded=0;orthogonalLoop=1;jettySize=auto;html=1;" edge="1" parent="1" source="pXtrDEg1o2ByqRby1C81-13" target="pXtrDEg1o2ByqRby1C81-28">
          <mxGeometry relative="1" as="geometry" />
        </mxCell>
        <mxCell id="pXtrDEg1o2ByqRby1C81-13" value="Voto em andamento" style="html=1;whiteSpace=wrap;" vertex="1" parent="1">
          <mxGeometry x="402.5" y="315" width="100" height="40" as="geometry" />
        </mxCell>
        <mxCell id="pXtrDEg1o2ByqRby1C81-36" style="edgeStyle=orthogonalEdgeStyle;rounded=0;orthogonalLoop=1;jettySize=auto;html=1;entryX=0.5;entryY=0;entryDx=0;entryDy=0;" edge="1" parent="1" source="pXtrDEg1o2ByqRby1C81-24" target="pXtrDEg1o2ByqRby1C81-28">
          <mxGeometry relative="1" as="geometry" />
        </mxCell>
        <mxCell id="pXtrDEg1o2ByqRby1C81-24" value="" style="ellipse;html=1;shape=endState;fillColor=#000000;strokeColor=#ff0000;" vertex="1" parent="1">
          <mxGeometry x="652.5" y="250" width="30" height="30" as="geometry" />
        </mxCell>
        <mxCell id="pXtrDEg1o2ByqRby1C81-25" value="Estado Final" style="text;html=1;align=center;verticalAlign=middle;resizable=0;points=[];autosize=1;strokeColor=none;fillColor=none;" vertex="1" parent="1">
          <mxGeometry x="622.5" y="220" width="90" height="30" as="geometry" />
        </mxCell>
        <mxCell id="pXtrDEg1o2ByqRby1C81-26" style="edgeStyle=orthogonalEdgeStyle;rounded=0;orthogonalLoop=1;jettySize=auto;html=1;exitX=0;exitY=0;exitDx=0;exitDy=0;entryX=0;entryY=0.25;entryDx=0;entryDy=0;" edge="1" parent="1" source="pXtrDEg1o2ByqRby1C81-5" target="pXtrDEg1o2ByqRby1C81-5">
          <mxGeometry relative="1" as="geometry" />
        </mxCell>
        <mxCell id="pXtrDEg1o2ByqRby1C81-28" value="Voto Finalizado" style="html=1;whiteSpace=wrap;" vertex="1" parent="1">
          <mxGeometry x="617.5" y="315" width="100" height="40" as="geometry" />
        </mxCell>
        <mxCell id="pXtrDEg1o2ByqRby1C81-29" value="Votando" style="swimlane;fontStyle=1;align=center;verticalAlign=middle;childLayout=stackLayout;horizontal=1;startSize=30;horizontalStack=0;resizeParent=0;resizeLast=1;container=0;fontColor=#000000;collapsible=0;rounded=1;arcSize=50;strokeColor=#ff0000;fillColor=#ffffc0;swimlaneFillColor=#ffffc0;dropTarget=0;fontSize=10;" vertex="1" parent="1">
          <mxGeometry x="96.75" y="310" width="121.5" height="50" as="geometry" />
        </mxCell>
        <mxCell id="pXtrDEg1o2ByqRby1C81-30" value="RealizarVoto()" style="text;html=1;strokeColor=none;fillColor=none;align=center;verticalAlign=middle;spacingLeft=4;spacingRight=4;whiteSpace=wrap;overflow=hidden;rotatable=0;fontColor=#000000;fontSize=10;" vertex="1" parent="pXtrDEg1o2ByqRby1C81-29">
          <mxGeometry y="30" width="121.5" height="20" as="geometry" />
        </mxCell>
        <mxCell id="pXtrDEg1o2ByqRby1C81-34" value="Sistema funcionando" style="edgeStyle=orthogonalEdgeStyle;html=1;align=center;verticalAlign=bottom;endArrow=open;endSize=8;strokeColor=#ff0000;rounded=0;exitX=1;exitY=0.5;exitDx=0;exitDy=0;" edge="1" parent="1" source="pXtrDEg1o2ByqRby1C81-8" target="pXtrDEg1o2ByqRby1C81-13">
          <mxGeometry x="-0.199" y="5" relative="1" as="geometry">
            <mxPoint x="528" y="370" as="targetPoint" />
            <mxPoint as="offset" />
            <mxPoint x="360" y="520" as="sourcePoint" />
          </mxGeometry>
        </mxCell>
      </root>
    </mxGraphModel>
  </diagram>
</mxfile>
